<?xml version="1.0" encoding="UTF-8"?>
<svg version="1.1" xmlns="http://www.w3.org/2000/svg" width="451" height="379">
<path d="M0 0 C148.83 0 297.66 0 451 0 C451 125.07 451 250.14 451 379 C302.17 379 153.34 379 0 379 C0 253.93 0 128.86 0 0 Z " fill="#F0F2EE" transform="translate(0,0)"/>
<path d="M0 0 C145.2401671 0 145.2401671 0 168.23046875 21.22265625 C183.1440769 36.17833382 189.35891376 56.87533342 189.37670898 77.61694336 C189.08321722 89.06312232 186.20279237 100.4027012 182 111 C181.34 111 180.68 111 180 111 C179.82984375 111.62648438 179.6596875 112.25296875 179.484375 112.8984375 C179.12085938 114.12433594 179.12085938 114.12433594 178.75 115.375 C178.40195312 116.59316406 178.40195312 116.59316406 178.046875 117.8359375 C176.76725675 120.4811185 175.63739863 120.87428107 173 122 C172.62243192 123.32148827 172.2981424 124.65835921 172 126 C169.48638279 130.18936201 166.54055519 133.78445188 163.26953125 137.38671875 C161.78226668 139.08959093 161.78226668 139.08959093 161 142 C161.56976563 142.061875 162.13953125 142.12375 162.7265625 142.1875 C169.94144904 144.76601615 176.29281704 156.40466287 180 163 C181.83718664 166.93974468 183.48287565 170.92685094 185 175 C185.35578125 175.94488281 185.7115625 176.88976562 186.078125 177.86328125 C187.93135386 184.16897098 188.14705886 190.53384246 188.11352539 197.06835938 C188.11367142 197.83030609 188.11381744 198.59225281 188.1139679 199.37728882 C188.11327781 201.86613938 188.10552829 204.3549127 188.09765625 206.84375 C188.09578885 208.58109496 188.09436647 210.31844045 188.09336853 212.05578613 C188.0895687 216.60625691 188.0797603 221.15669526 188.06866455 225.70715332 C188.05658706 231.17885671 188.05203612 236.650571 188.04621124 242.12228394 C188.03654699 250.41487844 188.01737276 258.70740194 188 267 C172.16 267 156.32 267 140 267 C138.87590506 253.51086076 138.87590506 253.51086076 138.84228516 248.05737305 C138.83202301 246.83958664 138.82176086 245.62180023 138.81118774 244.36711121 C138.80388641 243.0948317 138.79658508 241.82255219 138.7890625 240.51171875 C138.77605581 239.15557582 138.7622352 237.79944048 138.74765015 236.4433136 C138.68679699 230.74832566 138.6318856 225.05337683 138.59863281 219.3581543 C138.57761571 215.84928803 138.5422879 212.34080759 138.49787521 208.83216286 C138.47702271 206.86757714 138.47168885 204.90284619 138.46670532 202.93815613 C138.37830919 196.52433138 138.13390541 191.64774914 135 186 C134.37931641 184.77410156 134.37931641 184.77410156 133.74609375 183.5234375 C129.36473496 176.33016187 123.82734495 173.60911498 116 171 C113.83846721 170.88224729 111.67358433 170.82310524 109.5090332 170.79467773 C108.84455516 170.78464501 108.18007711 170.77461229 107.49546337 170.76427555 C105.34727131 170.73292522 103.19906077 170.70813381 101.05078125 170.68359375 C99.73670288 170.66494263 98.42262451 170.6462915 97.06872559 170.6270752 C92.1500535 170.55866785 87.23126842 170.49858924 82.3125 170.4375 C65.8228125 170.2209375 65.8228125 170.2209375 49 170 C49 202.01 49 234.02 49 267 C32.83 267 16.66 267 0 267 C0 178.89 0 90.78 0 0 Z " fill="#CE0F0B" transform="translate(121,49)"/>
<path d="M0 0 C1.74120117 -0.01836914 1.74120117 -0.01836914 3.51757812 -0.03710938 C17.64492894 -0.06090615 29.93756129 1.64169842 40.5625 11.6875 C47.65986083 19.37913746 48.09834141 27.79556768 47.90234375 37.7734375 C47.49872799 45.56774353 44.60670612 52.33541053 39.375 58.125 C32.42638929 64.34537203 22.85588095 68.45543585 13.5390625 68.41796875 C12.34925781 68.41603516 11.15945312 68.41410156 9.93359375 68.41210938 C8.69738281 68.39986328 7.46117187 68.38761719 6.1875 68.375 C4.48400391 68.3740332 4.48400391 68.3740332 2.74609375 68.37304688 C-12.32361536 68.30158882 -27.37367093 67.65824466 -42.4375 67.1875 C-42.4375 45.4075 -42.4375 23.6275 -42.4375 1.1875 C-10.54134501 0.00616093 -10.54134501 0.00616093 0 0 Z " fill="#F4F7F6" transform="translate(212.4375,96.8125)"/>
<path d="M0 0 C6.33005995 3.93870397 9.00370106 10.02580541 11 17 C12.24804045 28.95796897 12.24804045 28.95796897 9.1875 33.625 C7 36 7 36 5.4375 37.4375 C3.69891678 39.14303848 3.69891678 39.14303848 2.5625 42.5625 C1 46 1 46 -1.125 47.3125 C-1.74375 47.539375 -2.3625 47.76625 -3 48 C-3.495 48.99 -3.495 48.99 -4 50 C-4.66 50 -5.32 50 -6 50 C-6 50.66 -6 51.32 -6 52 C-7.64453125 53.5859375 -7.64453125 53.5859375 -9.8125 55.375 C-12.03758739 57.21505405 -13.87216085 58.82426082 -15.57421875 61.1640625 C-17 63 -17 63 -20 64 C-21.68762851 65.6454378 -23.3540349 67.31288577 -25 69 C-25.99 69.66 -26.98 70.32 -28 71 C-28.495 72.485 -28.495 72.485 -29 74 C-31.88915055 72.68610661 -34.00516655 71.25929135 -36.28515625 69.05859375 C-36.89278809 68.47940186 -37.50041992 67.90020996 -38.12646484 67.3034668 C-39.08480225 66.37981323 -39.08480225 66.37981323 -40.0625 65.4375 C-44.54486836 61.17626181 -49.03949957 57.04495721 -53.875 53.1875 C-70.12589519 40.08506439 -70.12589519 40.08506439 -72 31 C-72.31934195 27.93606315 -72.44522784 24.89180936 -72.5 21.8125 C-72.51877197 21.0397876 -72.53754395 20.2670752 -72.55688477 19.47094727 C-72.48499105 13.12170525 -70.45485295 9.60393309 -66.0703125 4.953125 C-59.46249746 -0.83203033 -54.40557317 -2.43253197 -45.6171875 -2.25390625 C-40.01165127 -1.71008557 -36.11084256 1.35896801 -32 5 C-31.505 5.99 -31.505 5.99 -31 7 C-26.94614063 5.19526171 -24.13397514 2.54211524 -20.90234375 -0.44140625 C-14.76788136 -5.46738263 -6.56213821 -2.86707357 0 0 Z " fill="#D9110C" transform="translate(405,147)"/>
<path d="M0 0 C0.33 0 0.66 0 1 0 C1.58942843 32.69183213 2.06892813 65.38155415 2.28125 98.078125 C2.29088707 99.53890487 2.30053062 100.99968469 2.31018066 102.46046448 C2.38750158 114.24013036 2.4587873 126.01983315 2.52606201 137.79956055 C2.57305804 146.02534631 2.6220502 154.25110831 2.67754889 162.47684169 C2.70091557 165.9666613 2.72252544 169.45647088 2.73963928 172.94632721 C2.75908504 176.78098884 2.78420765 180.61557571 2.81054688 184.45019531 C2.81473129 185.56467041 2.81891571 186.67914551 2.82322693 187.82739258 C2.87072943 193.81425562 3.15727576 199.70436877 3.7766571 205.6603508 C4.08634736 208.90453976 4.11352493 212.11752966 4.09375 215.375 C4.09016479 216.03653076 4.08657959 216.69806152 4.08288574 217.37963867 C4.01144672 226.588393 3.74775853 235.79468984 3.5 245 C3.45163339 246.85416173 3.40345523 248.70832839 3.35546875 250.5625 C3.2391438 255.04172622 3.1202964 259.52087875 3 264 C4.32 263.67 5.64 263.34 7 263 C19.87 263 32.74 263 46 263 C46.33 231.32 46.66 199.64 47 167 C66.243125 166.938125 66.243125 166.938125 85.875 166.875 C89.92894043 166.85679199 93.98288086 166.83858398 98.15966797 166.81982422 C103.10180664 166.81079102 103.10180664 166.81079102 105.41384888 166.80911255 C107.03210549 166.80603702 108.65035747 166.79899395 110.26858521 166.78884888 C112.71673574 166.7742652 115.16460568 166.77218611 117.61279297 166.77294922 C118.33632902 166.765753 119.05986507 166.75855679 119.80532646 166.7511425 C124.77194733 166.77194733 124.77194733 166.77194733 127 169 C126.67 169.33 126.34 169.66 126 170 C126.33 170.66 126.66 171.32 127 172 C126.67 172.66 126.34 173.32 126 174 C125.18923508 173.68406136 125.18923508 173.68406136 124.36209106 173.36174011 C116.4279727 170.60145309 108.66384693 170.52311083 100.3671875 170.48828125 C99.06015869 170.47164429 97.75312988 170.45500732 96.40649414 170.43786621 C91.56282346 170.38039417 86.71888231 170.3478961 81.875 170.3125 C71.02625 170.209375 60.1775 170.10625 49 170 C49 202.01 49 234.02 49 267 C32.83 267 16.66 267 0 267 C0 178.89 0 90.78 0 0 Z " fill="#8B2A2E" transform="translate(121,49)"/>
<path d="M0 0 C0.99 0.33 1.98 0.66 3 1 C2.67 1.99 2.34 2.98 2 4 C2.56976563 4.061875 3.13953125 4.12375 3.7265625 4.1875 C10.94144904 6.76601615 17.29281704 18.40466287 21 25 C22.83718664 28.93974468 24.48287565 32.92685094 26 37 C26.35578125 37.94488281 26.7115625 38.88976562 27.078125 39.86328125 C28.93135386 46.16897098 29.14705886 52.53384246 29.11352539 59.06835938 C29.11367142 59.83030609 29.11381744 60.59225281 29.1139679 61.37728882 C29.11327781 63.86613938 29.10552829 66.3549127 29.09765625 68.84375 C29.09578885 70.58109496 29.09436647 72.31844045 29.09336853 74.05578613 C29.0895687 78.60625691 29.0797603 83.15669526 29.06866455 87.70715332 C29.05658706 93.17885671 29.05203612 98.650571 29.04621124 104.12228394 C29.03654699 112.41487844 29.01737276 120.70740194 29 129 C13.16 129 -2.68 129 -19 129 C-20.1246969 115.50363723 -20.1246969 115.50363723 -20.18945312 110.05737305 C-20.20617065 108.83958664 -20.22288818 107.62180023 -20.2401123 106.36711121 C-20.26047546 104.45869194 -20.26047546 104.45869194 -20.28125 102.51171875 C-20.29935295 101.15557704 -20.31795851 99.79944195 -20.33703613 98.4433136 C-20.40596875 93.46962458 -20.46620083 88.49583889 -20.52606201 83.52203369 C-20.57724749 79.29201299 -20.63209844 75.06207111 -20.69187927 70.83216286 C-20.71817028 68.86753907 -20.73908957 66.90284574 -20.7598877 64.93815613 C-20.83965397 59.20279262 -20.96625593 53.64844873 -22 48 C-21.67 48.66 -21.34 49.32 -21 50 C-20.34 50 -19.68 50 -19 50 C-18.68707355 52.33327683 -18.37465054 54.66661934 -18.0625 57 C-17.88847656 58.299375 -17.71445312 59.59875 -17.53515625 60.9375 C-17.35384666 62.29127825 -17.17610933 63.64553545 -17 65 C-16.82597656 66.14855469 -16.65195312 67.29710937 -16.47265625 68.48046875 C-15.77643071 74.10051569 -15.8762401 79.72051542 -15.90234375 85.375 C-15.9037587 86.5400708 -15.90517365 87.7051416 -15.90663147 88.90551758 C-15.91220084 92.6037052 -15.92474769 96.30183087 -15.9375 100 C-15.94251896 102.51692621 -15.94708117 105.03385337 -15.95117188 107.55078125 C-15.96216024 113.70054174 -15.97886772 119.85026644 -16 126 C-15.38892395 125.92640762 -14.7778479 125.85281525 -14.14825439 125.7769928 C-12.94033234 125.63613503 -12.94033234 125.63613503 -11.70800781 125.49243164 C-10.51295624 125.35110558 -10.51295624 125.35110558 -9.29376221 125.20692444 C-6.38794858 124.94478573 -3.64727892 125.12375723 -0.75 125.4375 C2.85387945 125.81409587 6.37406009 126.16072429 10 126 C10.33 125.67 10.66 125.34 11 125 C14.33609884 124.96822763 17.66124506 125.06864009 20.99609375 125.16015625 C24.11621939 125.32941879 24.11621939 125.32941879 26 123 C26.24339551 120.10116917 26.24339551 120.10116917 26.125 116.875 C26.10695313 115.77929688 26.08890625 114.68359375 26.0703125 113.5546875 C26.04710937 112.71164062 26.02390625 111.86859375 26 111 C25.01 111.495 25.01 111.495 24 112 C23.87737081 105.56878031 24.09159567 99.22277865 24.5625 92.8125 C24.95311888 87.38709645 25.00504884 82.3602605 24 77 C24.33 77 24.66 77 25 77 C25.33 72.05 25.66 67.1 26 62 C25.34 63.32 24.68 64.64 24 66 C23.91901658 62.43672942 24.14012536 59.43949858 25 56 C24.67 55.34 24.34 54.68 24 54 C23.82251866 52.56606347 23.68108853 51.1275036 23.5625 49.6875 C23.2073097 46.11841042 22.45471346 43.29735051 21 40 C21 39.01 21 38.02 21 37 C20.01 37 19.02 37 18 37 C17.66408104 34.72954771 17.33134935 32.45862367 17 30.1875 C16.814375 28.92292969 16.62875 27.65835938 16.4375 26.35546875 C16 23 16 23 16 20 C15.01 20 14.02 20 13 20 C13 18.68 13 17.36 13 16 C10.525 15.505 10.525 15.505 8 15 C8 14.34 8 13.68 8 13 C6.68 12.67 5.36 12.34 4 12 C4 11.34 4 10.68 4 10 C3.34 9.67 2.68 9.34 2 9 C1.3671875 6.93359375 1.3671875 6.93359375 0.875 4.4375 C0.70742188 3.61121094 0.53984375 2.78492188 0.3671875 1.93359375 C0.24601562 1.29550781 0.12484375 0.65742188 0 0 Z " fill="#6F1F20" transform="translate(280,187)"/>
<path d="M0 0 C6.99063432 -0.4462107 12.83738913 1.03215324 18.8125 4.75 C24.64157266 10.74561759 27.2758897 18.174735 27.375 26.5 C27.2922743 32.08716663 26.77359869 34.90294999 23 39 C22.484375 39.474375 21.96875 39.94875 21.4375 40.4375 C19.69891678 42.14303848 19.69891678 42.14303848 18.5625 45.5625 C17 49 17 49 14.875 50.3125 C14.25625 50.539375 13.6375 50.76625 13 51 C12.505 51.99 12.505 51.99 12 53 C11.34 53 10.68 53 10 53 C10 53.66 10 54.32 10 55 C8.35546875 56.5859375 8.35546875 56.5859375 6.1875 58.375 C3.96241261 60.21505405 2.12783915 61.82426082 0.42578125 64.1640625 C-1 66 -1 66 -4 67 C-5.68762851 68.6454378 -7.3540349 70.31288577 -9 72 C-10.485 72.99 -10.485 72.99 -12 74 C-12.33 74.99 -12.66 75.98 -13 77 C-15.96355071 75.65691898 -18.13557537 74.14964148 -20.49609375 71.91796875 C-21.13740234 71.31533203 -21.77871094 70.71269531 -22.43945312 70.09179688 C-23.09880859 69.46337891 -23.75816406 68.83496094 -24.4375 68.1875 C-25.09298828 67.57068359 -25.74847656 66.95386719 -26.42382812 66.31835938 C-30.00814287 62.93537023 -33.53503896 59.5050184 -37 56 C-28.42857143 55.71428571 -28.42857143 55.71428571 -25 58 C-26.485 58.495 -26.485 58.495 -28 59 C-28.33 59.99 -28.66 60.98 -29 62 C-27.1746875 62.185625 -27.1746875 62.185625 -25.3125 62.375 C-21.91022491 62.7837539 -19.1815681 63.72737276 -16 65 C-14.515 64.505 -14.515 64.505 -13 64 C-13.103125 63.236875 -13.20625 62.47375 -13.3125 61.6875 C-13 59 -13 59 -11.0625 57.1875 C-6.99977456 55.61215748 -3.31313728 55.55936515 1 56 C1.99 56.495 1.99 56.495 3 57 C3.33 54.69 3.66 52.38 4 50 C5.65 50.66 7.3 51.32 9 52 C9.33 50.68 9.66 49.36 10 48 C10.99 48.33 11.98 48.66 13 49 C13 48.34 13 47.68 13 47 C13.66 47 14.32 47 15 47 C15.433125 45.88625 15.433125 45.88625 15.875 44.75 C16.82302644 42.43260203 17.84845911 40.22082885 19 38 C19.99 38 20.98 38 22 38 C24.24621986 31.26134042 25.1833895 22.61175756 22.94921875 15.79296875 C21.61856976 13.14914832 21.61856976 13.14914832 20.12890625 10.8203125 C19 9 19 9 19 7 C14.09594469 4.98068311 9.47021376 3.19281492 4.1875 2.5 C3.135625 2.335 2.08375 2.17 1 2 C0.505 1.01 0.505 1.01 0 0 Z " fill="#8C0E09" transform="translate(389,144)"/>
<path d="M0 0 C0.33 0.66 0.66 1.32 1 2 C1.66 2 2.32 2 3 2 C3.31292645 4.33327683 3.62534946 6.66661934 3.9375 9 C4.11152344 10.299375 4.28554688 11.59875 4.46484375 12.9375 C4.64615334 14.29127825 4.82389067 15.64553545 5 17 C5.17402344 18.14855469 5.34804688 19.29710937 5.52734375 20.48046875 C6.22356929 26.10051569 6.1237599 31.72051542 6.09765625 37.375 C6.0962413 38.5400708 6.09482635 39.7051416 6.09336853 40.90551758 C6.08779916 44.6037052 6.07525231 48.30183087 6.0625 52 C6.05748104 54.51692621 6.05291883 57.03385337 6.04882812 59.55078125 C6.03783976 65.70054174 6.02113228 71.85026644 6 78 C6.61107605 77.92640762 7.2221521 77.85281525 7.85174561 77.7769928 C9.05966766 77.63613503 9.05966766 77.63613503 10.29199219 77.49243164 C11.48704376 77.35110558 11.48704376 77.35110558 12.70623779 77.20692444 C15.61205142 76.94478573 18.35272108 77.12375723 21.25 77.4375 C24.85387945 77.81409587 28.37406009 78.16072429 32 78 C32.33 77.67 32.66 77.34 33 77 C35.70108504 77.090916 38.36930311 77.23740766 41.0625 77.4375 C41.82111328 77.48970703 42.57972656 77.54191406 43.36132812 77.59570312 C45.24121722 77.72575835 47.12065685 77.86228038 49 78 C49 78.99 49 79.98 49 81 C33.82 81 18.64 81 3 81 C1.8753031 67.50363723 1.8753031 67.50363723 1.81054688 62.05737305 C1.79382935 60.83958664 1.77711182 59.62180023 1.7598877 58.36711121 C1.74631226 57.0948317 1.73273682 55.82255219 1.71875 54.51171875 C1.70064705 53.15557704 1.68204149 51.79944195 1.66296387 50.4433136 C1.59403125 45.46962458 1.53379917 40.49583889 1.47393799 35.52203369 C1.42275251 31.29201299 1.36790156 27.06207111 1.30812073 22.83216286 C1.28182972 20.86753907 1.26091043 18.90284574 1.2401123 16.93815613 C1.16034603 11.20279262 1.03374407 5.64844873 0 0 Z " fill="#7A171B" transform="translate(258,235)"/>
<path d="M0 0 C19.243125 -0.061875 19.243125 -0.061875 38.875 -0.125 C42.92894043 -0.14320801 46.98288086 -0.16141602 51.15966797 -0.18017578 C56.10180664 -0.18920898 56.10180664 -0.18920898 58.41384888 -0.19088745 C60.03210549 -0.19396298 61.65035747 -0.20100605 63.26858521 -0.21115112 C65.71673574 -0.2257348 68.16460568 -0.22781389 70.61279297 -0.22705078 C71.33632902 -0.234247 72.05986507 -0.24144321 72.80532646 -0.2488575 C77.77194733 -0.22805267 77.77194733 -0.22805267 80 2 C79.67 2.33 79.34 2.66 79 3 C79.495 3.99 79.495 3.99 80 5 C79.67 5.66 79.34 6.32 79 7 C78.45949005 6.78937424 77.9189801 6.57874847 77.36209106 6.36174011 C69.4279727 3.60145309 61.66384693 3.52311083 53.3671875 3.48828125 C52.06015869 3.47164429 50.75312988 3.45500732 49.40649414 3.43786621 C44.56282346 3.38039417 39.71888231 3.3478961 34.875 3.3125 C24.02625 3.209375 13.1775 3.10625 2 3 C2 35.01 2 67.02 2 100 C1.67 100 1.34 100 1 100 C0.67 67 0.34 34 0 0 Z " fill="#A32526" transform="translate(168,216)"/>
<path d="M0 0 C0.66 0 1.32 0 2 0 C2 0.99 2 1.98 2 3 C2.99 3 3.98 3 5 3 C4.814375 4.216875 4.62875 5.43375 4.4375 6.6875 C4.00180241 10.08952228 4.31067919 12.63956106 5 16 C4.73128549 18.34165499 4.40961596 20.67884289 4 23 C4.66 23 5.32 23 6 23 C5.67 25.31 5.34 27.62 5 30 C5.66 30.33 6.32 30.66 7 31 C6.01 33.31 5.02 35.62 4 38 C3.34 38 2.68 38 2 38 C1.67 37.34 1.34 36.68 1 36 C1 41.61 1 47.22 1 53 C1.66 52.34 2.32 51.68 3 51 C3.79706768 54.49992696 4.11863027 57.7142231 4.09765625 61.30078125 C4.09443359 62.27724609 4.09121094 63.25371094 4.08789062 64.25976562 C4.07951172 65.26716797 4.07113281 66.27457031 4.0625 67.3125 C4.05798828 68.33923828 4.05347656 69.36597656 4.04882812 70.42382812 C4.03708184 72.94927882 4.02065565 75.47460905 4 78 C2 76 2 76 1.8046875 73.8359375 C1.82789062 73.02382812 1.85109375 72.21171875 1.875 71.375 C1.89304687 70.55773437 1.91109375 69.74046875 1.9296875 68.8984375 C1.95289062 68.27195312 1.97609375 67.64546875 2 67 C1.34 67 0.68 67 0 67 C0 72.28 0 77.56 0 83 C-0.33 83 -0.66 83 -1 83 C-1.02312328 72.32580302 -1.04091501 61.65161194 -1.05181217 50.97739506 C-1.05704103 46.02146078 -1.06413874 41.06554358 -1.07543945 36.10961914 C-1.08626822 31.33101164 -1.09227681 26.55242062 -1.09487724 21.7738018 C-1.09673151 19.94646381 -1.10035216 18.11912676 -1.10573006 16.29179573 C-1.11294036 13.74146671 -1.11399095 11.19120663 -1.11352539 8.64086914 C-1.11712067 7.87770386 -1.12071594 7.11453857 -1.12442017 6.32824707 C-1.11405216 1.11405216 -1.11405216 1.11405216 0 0 Z " fill="#DE1415" transform="translate(124,101)"/>
<path d="M0 0 C1 2 1 2 0.375 4.4375 C-1.37500001 7.69886366 -2.65607484 8.40954284 -6 10 C-8.91870199 10.62967875 -11.83915503 10.88488903 -14.8125 11.125 C-15.68994873 11.20282715 -16.56739746 11.2806543 -17.47143555 11.36083984 C-38.62524816 13.13403528 -59.79096752 13.13654785 -81 13 C-81 12.01 -81 11.02 -81 10 C-80.23959915 9.99857498 -79.4791983 9.99714996 -78.695755 9.99568176 C-71.47383865 9.97773447 -64.25262415 9.93577884 -57.03101826 9.86790943 C-53.31967148 9.83384822 -49.60872717 9.80856245 -45.8972168 9.80444336 C-42.30470519 9.80011487 -38.71309824 9.77128429 -35.12087059 9.72656822 C-33.10673559 9.70755933 -31.09241693 9.71290603 -29.07820129 9.71894836 C-18.05243501 9.54710371 -8.50985668 7.30450317 0 0 Z " fill="#960205" transform="translate(250,155)"/>
<path d="M0 0 C0.99 0.33 1.98 0.66 3 1 C2.67 1.99 2.34 2.98 2 4 C2.56589844 4.05542969 3.13179688 4.11085937 3.71484375 4.16796875 C7.04841083 5.38172907 8.39510006 7.54365574 10.5625 10.3125 C11.70912109 11.76076172 11.70912109 11.76076172 12.87890625 13.23828125 C13.57886719 14.14964844 14.27882813 15.06101563 15 16 C15.54527344 16.65355469 16.09054687 17.30710938 16.65234375 17.98046875 C18.36422807 20.54581423 19.1053699 23.05023569 20 26 C20.84677313 28.44007832 21.70113424 30.87753471 22.5625 33.3125 C22.99691406 34.54613281 23.43132812 35.77976563 23.87890625 37.05078125 C24.71191741 39.8484872 24.71191741 39.8484872 26 41 C27.64420596 49.03834025 28.54812425 58.4549769 25 66 C24.67 66 24.34 66 24 66 C23.91901658 62.43672942 24.14012536 59.43949858 25 56 C24.67 55.34 24.34 54.68 24 54 C23.82251866 52.56606347 23.68108853 51.1275036 23.5625 49.6875 C23.2073097 46.11841042 22.45471346 43.29735051 21 40 C21 39.01 21 38.02 21 37 C20.01 37 19.02 37 18 37 C17.66408104 34.72954771 17.33134935 32.45862367 17 30.1875 C16.814375 28.92292969 16.62875 27.65835938 16.4375 26.35546875 C16 23 16 23 16 20 C15.01 20 14.02 20 13 20 C13 18.68 13 17.36 13 16 C11.35 15.67 9.7 15.34 8 15 C8 14.34 8 13.68 8 13 C6.68 12.67 5.36 12.34 4 12 C4 11.34 4 10.68 4 10 C3.34 9.67 2.68 9.34 2 9 C1.3671875 6.93359375 1.3671875 6.93359375 0.875 4.4375 C0.70742188 3.61121094 0.53984375 2.78492188 0.3671875 1.93359375 C0.24601562 1.29550781 0.12484375 0.65742188 0 0 Z " fill="#9D0505" transform="translate(280,187)"/>
<path d="M0 0 C13.63832297 3.92808841 26.11056982 14.6397615 33.0703125 26.8828125 C42 43.30594406 42 43.30594406 42 52 C41.34 52 40.68 52 40 52 C39.32635339 49.91891315 38.66133202 47.8350329 38 45.75 C37.62875 44.58984375 37.2575 43.4296875 36.875 42.234375 C36 39 36 39 36 35 C35.34 35 34.68 35 34 35 C32.4921875 33.1015625 32.4921875 33.1015625 30.875 30.625 C30.33617187 29.81289062 29.79734375 29.00078125 29.2421875 28.1640625 C28 26 28 26 28 24 C27.1028125 23.566875 27.1028125 23.566875 26.1875 23.125 C24 22 24 22 21 20 C21 19.34 21 18.68 21 18 C20.01 17.67 19.02 17.34 18 17 C18 16.34 18 15.68 18 15 C17.01 15 16.02 15 15 15 C13.3125 13.6875 13.3125 13.6875 12 12 C12 11.01 12 10.02 12 9 C11.01 9 10.02 9 9 9 C8.67 7.68 8.34 6.36 8 5 C6.865625 4.731875 5.73125 4.46375 4.5625 4.1875 C3.386875 3.795625 2.21125 3.40375 1 3 C0.67 2.01 0.34 1.02 0 0 Z " fill="#C30706" transform="translate(266,56)"/>
<path d="M0 0 C4.73684211 3.47368421 4.73684211 3.47368421 6 6 C10.095613 4.18176822 12.93470721 1.47545937 16.1953125 -1.5390625 C18 -3 18 -3 20 -3 C18.65515549 1.03453354 16.51870529 1.72319069 13 4 C12.0409375 5.1446875 12.0409375 5.1446875 11.0625 6.3125 C9 8 9 8 5.4375 8 C2 7 2 7 0.0625 5.0625 C-1 3 -1 3 -1 1 C-5.95 0.01 -10.9 -0.98 -16 -2 C-16 -1.34 -16 -0.68 -16 0 C-18.3125 2.625 -18.3125 2.625 -21 5 C-21.99 5 -22.98 5 -24 5 C-24.33 5.99 -24.66 6.98 -25 8 C-26.33222242 8.82806214 -27.69027141 9.61507094 -29.0625 10.375 C-32.00806395 12.47897425 -32.88576958 13.39077111 -33.5625 17 C-33.5625 20.37724155 -33.36302986 23.64299358 -33 27 C-32.91621094 27.86496094 -32.83242188 28.72992188 -32.74609375 29.62109375 C-32.54408638 31.41992132 -32.28051253 33.2117326 -32 35 C-35.8918041 31.1081959 -35.25060503 26.34954051 -35.3125 21.1875 C-35.34150391 20.39279297 -35.37050781 19.59808594 -35.40039062 18.77929688 C-35.47090192 12.22174604 -33.61028237 8.76880155 -29.0703125 3.953125 C-20.85600824 -3.23851487 -9.83651916 -6.55767944 0 0 Z " fill="#B90A0D" transform="translate(368,148)"/>
<path d="M0 0 C8.57142857 -0.28571429 8.57142857 -0.28571429 12 2 C11.01 2.33 10.02 2.66 9 3 C8.67 3.99 8.34 4.98 8 6 C9.216875 6.12375 10.43375 6.2475 11.6875 6.375 C15.08977509 6.7837539 17.8184319 7.72737276 21 9 C21.99 8.67 22.98 8.34 24 8 C24 8.66 24 9.32 24 10 C25.32 9.67 26.64 9.34 28 9 C27.67 9.99 27.34 10.98 27 12 C28.65 11.67 30.3 11.34 32 11 C30.66529737 15.00410788 28.44000697 15.70666202 25 18 C24.67 18.99 24.34 19.98 24 21 C21.03644929 19.65691898 18.86442463 18.14964148 16.50390625 15.91796875 C15.86259766 15.31533203 15.22128906 14.71269531 14.56054688 14.09179688 C13.90119141 13.46337891 13.24183594 12.83496094 12.5625 12.1875 C11.90701172 11.57068359 11.25152344 10.95386719 10.57617188 10.31835938 C6.99185713 6.93537023 3.46496104 3.5050184 0 0 Z " fill="#7C0808" transform="translate(352,200)"/>
<path d="M0 0 C0.33 0 0.66 0 1 0 C0.58223867 6.77061473 -0.06594966 13.79335506 -3 20 C-3.99 20.33 -4.98 20.66 -6 21 C-6.91276631 23.25325403 -7.45781522 25.51709989 -8.05859375 27.87109375 C-9.23937907 30.54133442 -10.38623906 30.87755831 -13 32 C-13.60061233 33.90178785 -13.60061233 33.90178785 -14 36 C-15.5625 38.25 -15.5625 38.25 -17 40 C-16.39009109 36.44219804 -15.4216319 33.3171411 -14 30 C-13.01 30 -12.02 30 -11 30 C-11.33 26.37 -11.66 22.74 -12 19 C-10.68 18.34 -9.36 17.68 -8 17 C-8.66 16.67 -9.32 16.34 -10 16 C-10 15.01 -10 14.02 -10 13 C-10.99 12.67 -11.98 12.34 -13 12 C-12.4225 11.773125 -11.845 11.54625 -11.25 11.3125 C-8.81029744 10.07014311 -8.81029744 10.07014311 -7 7.5 C-5.00991585 5.01239482 -3.77254504 4.33847002 -1 3 C-0.67 2.01 -0.34 1.02 0 0 Z " fill="#C21C13" transform="translate(307,139)"/>
<path d="M0 0 C0.33 0 0.66 0 1 0 C1.33 6.93 1.66 13.86 2 21 C4.97 20.67 7.94 20.34 11 20 C13.08705023 20.07593727 15.17370704 20.21266079 17.25 20.4375 C20.85387945 20.81409587 24.37406009 21.16072429 28 21 C28.33 20.67 28.66 20.34 29 20 C31.70108504 20.090916 34.36930311 20.23740766 37.0625 20.4375 C37.82111328 20.48970703 38.57972656 20.54191406 39.36132812 20.59570312 C41.24121722 20.72575835 43.12065685 20.86228038 45 21 C45 21.99 45 22.98 45 24 C29.82 24 14.64 24 -1 24 C-0.67 16.08 -0.34 8.16 0 0 Z " fill="#93262A" transform="translate(262,292)"/>
<path d="M0 0 C17.82 0 35.64 0 54 0 C53.67 0.66 53.34 1.32 53 2 C50.55172522 2.3227825 48.21013682 2.51708196 45.75 2.625 C45.03432861 2.66294678 44.31865723 2.70089355 43.58129883 2.73999023 C37.05374054 3.05909601 30.53410075 3.08923658 24 3 C23.01 3 22.02 3 21 3 C20.01 2.814375 19.02 2.62875 18 2.4375 C14.95782944 1.76415722 14.95782944 1.76415722 12 3 C12 2.34 12 1.68 12 1 C9.116025 0.78209281 9.116025 0.78209281 6 2 C3.24724044 6.15915386 1.63687759 11.06419868 1 16 C0.67 16 0.34 16 0 16 C0 10.72 0 5.44 0 0 Z " fill="#F61B16" transform="translate(123,53)"/>
<path d="M0 0 C-0.66 0.99 -1.32 1.98 -2 3 C-4.23071289 3.41650391 -4.23071289 3.41650391 -6.97265625 3.4765625 C-7.95427734 3.5075 -8.93589844 3.5384375 -9.94726562 3.5703125 C-10.97529297 3.58835938 -12.00332031 3.60640625 -13.0625 3.625 C-15.09515334 3.67578459 -17.12771884 3.73026747 -19.16015625 3.7890625 C-20.06386963 3.80662598 -20.96758301 3.82418945 -21.89868164 3.84228516 C-23.98670188 3.76930177 -23.98670188 3.76930177 -25 5 C-27.27030415 5.04902141 -29.54195554 5.03622005 -31.8125 5 C-39.31969605 4.91607721 -46.76859222 5.23746821 -54.2590332 5.73242188 C-58.38959801 5.98037974 -61.95075859 6.02741946 -66 5 C-67.6662553 4.9629721 -69.33401319 4.95240038 -71 5 C-71 4.34 -71 3.68 -71 3 C-70.35013123 2.97716446 -69.70026245 2.95432892 -69.03070068 2.93080139 C-62.21630504 2.69078616 -55.40206192 2.44674007 -48.58789062 2.20043945 C-46.05081759 2.1092533 -43.51370842 2.01906662 -40.9765625 1.92993164 C-37.3123984 1.80102335 -33.64838288 1.66842271 -29.984375 1.53515625 C-28.86512634 1.49656998 -27.74587769 1.4579837 -26.5927124 1.41822815 C-20.25907853 1.18389515 -13.96750781 0.79150982 -7.65679932 0.19993591 C-5.09261067 0.00696936 -2.57025283 -0.0347592 0 0 Z " fill="#C00503" transform="translate(241,165)"/>
<path d="M0 0 C0 0.33 0 0.66 0 1 C-3.3 1 -6.6 1 -10 1 C-10 1.66 -10 2.32 -10 3 C-7.03 3 -4.06 3 -1 3 C-3 6 -3 6 -6.125 6.75 C-10.32119001 7.02072194 -13.85840914 6.6539354 -18 6 C-18 5.34 -18 4.68 -18 4 C-16.02 4 -14.04 4 -12 4 C-12 3.34 -12 2.68 -12 2 C-26.52 2 -41.04 2 -56 2 C-56 1.67 -56 1.34 -56 1 C-37.31243764 0.1500516 -18.70384134 -0.13288334 0 0 Z " fill="#F1DEDB" transform="translate(226,97)"/>
<path d="M0 0 C6.99063432 -0.4462107 12.83738913 1.03215324 18.8125 4.75 C24.69313402 10.79865214 27.28300448 18.22860817 27.3125 26.625 C27.32925781 27.73101562 27.34601563 28.83703125 27.36328125 29.9765625 C26.96889304 33.2588902 26.21353443 34.6054113 24 37 C24.05800781 35.81664062 24.11601562 34.63328125 24.17578125 33.4140625 C24.59549112 21.56553531 24.59549112 21.56553531 20.09375 10.75 C19 9 19 9 19 7 C14.09594469 4.98068311 9.47021376 3.19281492 4.1875 2.5 C3.135625 2.335 2.08375 2.17 1 2 C0.67 1.34 0.34 0.68 0 0 Z " fill="#7C171B" transform="translate(389,144)"/>
<path d="M0 0 C2.875 -0.125 2.875 -0.125 6 0 C6.99 0.99 6.99 0.99 8 2 C7.67 2.33 7.34 2.66 7 3 C7.495 3.99 7.495 3.99 8 5 C7.67 5.66 7.34 6.32 7 7 C6.45949005 6.78937424 5.9189801 6.57874847 5.36209106 6.36174011 C-2.57225932 3.60137237 -10.33664205 3.52400416 -18.6328125 3.48828125 C-20.12069143 3.47140255 -21.60855638 3.4532481 -23.09640503 3.43388367 C-26.97932564 3.38672326 -30.86218956 3.35669579 -34.74530029 3.33044434 C-38.72093906 3.30046568 -42.69638304 3.25399563 -46.671875 3.20898438 C-54.44781927 3.1233386 -62.22377831 3.05582304 -70 3 C-70 2.67 -70 2.34 -70 2 C-46.9 2 -23.8 2 0 2 C0 1.34 0 0.68 0 0 Z " fill="#B61D27" transform="translate(240,216)"/>
<path d="M0 0 C1.75070517 0.11470137 3.50057536 0.24219028 5.25 0.375 C6.22453125 0.44460937 7.1990625 0.51421875 8.203125 0.5859375 C10.93843178 0.99088515 12.69047528 1.50560165 15 3 C15.680625 4.2375 15.680625 4.2375 16.375 5.5 C18.47554224 8.73160345 20.34013513 9.10536636 24 10 C23.67 11.98 23.34 13.96 23 16 C22.34 16 21.68 16 21 16 C21 15.34 21 14.68 21 14 C20.01 14 19.02 14 18 14 C16 11 16 11 16 8 C15.01 8 14.02 8 13 8 C12.67 7.01 12.34 6.02 12 5 C6.21408489 4.89522488 0.70690634 5.00749455 -5 6 C-3.625 4 -3.625 4 -2 2 C-1.34 2 -0.68 2 0 2 C0 1.34 0 0.68 0 0 Z " fill="#BC0803" transform="translate(352,146)"/>
<path d="M0 0 C0 0.66 0 1.32 0 2 C-1.32 2.33 -2.64 2.66 -4 3 C-4 2.34 -4 1.68 -4 1 C-5.299375 1.4640625 -5.299375 1.4640625 -6.625 1.9375 C-10.78640842 3.24757302 -14.63632872 4 -19 4 C-19 3.01 -19 2.02 -19 1 C-23.47883696 1.44703986 -23.47883696 1.44703986 -27 4 C-27.99 3.34 -28.98 2.68 -30 2 C-31.67460535 2.2908364 -33.33990013 2.63536688 -35 3 C-37.9380606 3.13305782 -40.87213254 3.09454089 -43.8125 3.0625 C-44.99489258 3.05573242 -44.99489258 3.05573242 -46.20117188 3.04882812 C-48.13414761 3.03711312 -50.06708393 3.01917998 -52 3 C-52.33 2.34 -52.66 1.68 -53 1 C-35.36461949 -0.42508125 -17.67729841 -0.09583189 0 0 Z " fill="#F21210" transform="translate(235,52)"/>
<path d="M0 0 C11.56915999 6.33406514 18.23492292 20.57267908 22.2265625 32.73828125 C23 36 23 36 23 40 C22.34 40 21.68 40 21 40 C20.32635339 37.91891315 19.66133202 35.8350329 19 33.75 C18.62875 32.58984375 18.2575 31.4296875 17.875 30.234375 C17 27 17 27 17 23 C16.34 23 15.68 23 15 23 C13.5625 21.20703125 13.5625 21.20703125 12 18.8125 C11.484375 18.03519531 10.96875 17.25789063 10.4375 16.45703125 C9 14 9 14 7.9765625 11.3671875 C6.66310662 8.18337045 4.44360395 6.37929858 2 4 C2 3.34 2 2.68 2 2 C1.34 2 0.68 2 0 2 C0 1.34 0 0.68 0 0 Z " fill="#721C1D" transform="translate(285,68)"/>
<path d="M0 0 C7.125 4.75 7.125 4.75 8.625 7.75 C12.720613 5.93176822 15.55970721 3.22545937 18.8203125 0.2109375 C20.625 -1.25 20.625 -1.25 22.625 -1.25 C21.28015549 2.78453354 19.14370529 3.47319069 15.625 5.75 C14.6659375 6.8946875 14.6659375 6.8946875 13.6875 8.0625 C11.625 9.75 11.625 9.75 8.0625 9.75 C4.625 8.75 4.625 8.75 2.6875 6.8125 C1.625 4.75 1.625 4.75 1.625 2.75 C-3.325 1.76 -8.275 0.77 -13.375 -0.25 C-13.375 0.41 -13.375 1.07 -13.375 1.75 C-16.675 2.41 -19.975 3.07 -23.375 3.75 C-17.23956617 -2.38543383 -7.96968722 -2.95173601 0 0 Z " fill="#801B1D" transform="translate(365.375,146.25)"/>
<path d="M0 0 C1.65 0 3.3 0 5 0 C5.79927576 3.3569582 6.18918579 5.44885958 5.0546875 8.75390625 C3.51980421 13.47793592 3.54998977 18.11649481 3.34375 23.05078125 C3.17359375 24.51064453 3.17359375 24.51064453 3 26 C2.34 26.33 1.68 26.66 1 27 C0.80426392 25.56359829 0.61872184 24.12580496 0.4375 22.6875 C0.33308594 21.88699219 0.22867187 21.08648437 0.12109375 20.26171875 C0 18 0 18 1 15 C0.5359375 14.13375 0.5359375 14.13375 0.0625 13.25 C-1.40978898 10.13221157 -1.13077327 7.40010497 -1 4 C-0.01 3.67 0.98 3.34 2 3 C1.34 2.67 0.68 2.34 0 2 C0 1.34 0 0.68 0 0 Z " fill="#F7F8F7" transform="translate(329,152)"/>
<path d="M0 0 C0.33 0.99 0.66 1.98 1 3 C1.66 3 2.32 3 3 3 C6.18402011 14.14407038 6.60903612 26.24558238 2 37 C1.34 36.01 0.68 35.02 0 34 C0.495 33.505 0.495 33.505 1 33 C1.09968472 31.32529663 1.13080572 29.64641635 1.1328125 27.96875 C1.13410156 26.92976563 1.13539063 25.89078125 1.13671875 24.8203125 C1.13285156 23.72460938 1.12898438 22.62890625 1.125 21.5 C1.12886719 20.43523437 1.13273437 19.37046875 1.13671875 18.2734375 C1.12913293 12.09858053 0.81025446 6.12192257 0 0 Z " fill="#A41417" transform="translate(305,105)"/>
<path d="M0 0 C1.0530835 0.03472412 2.10616699 0.06944824 3.19116211 0.10522461 C9.38241248 0.37215218 15.05659545 1.15314482 21.0625 2.6875 C20.7325 3.6775 20.4025 4.6675 20.0625 5.6875 C16.7625 5.6875 13.4625 5.6875 10.0625 5.6875 C10.3925 4.6975 10.7225 3.7075 11.0625 2.6875 C-8.7375 2.1925 -8.7375 2.1925 -28.9375 1.6875 C-28.9375 1.3575 -28.9375 1.0275 -28.9375 0.6875 C-19.25065774 -0.25086773 -9.72322679 -0.36070382 0 0 Z " fill="#DB0A04" transform="translate(228.9375,50.3125)"/>
<path d="M0 0 C0.99 0.33 1.98 0.66 3 1 C2.67 1.99 2.34 2.98 2 4 C2.84884766 4.08507812 2.84884766 4.08507812 3.71484375 4.171875 C7.03670555 5.375695 8.3903204 7.50077776 10.5625 10.25 C11.32691406 11.20390625 12.09132813 12.1578125 12.87890625 13.140625 C14.76888893 15.68844696 16.42804861 18.24782951 18 21 C17.34 21.33 16.68 21.66 16 22 C16 21.34 16 20.68 16 20 C15.01 20 14.02 20 13 20 C13 18.68 13 17.36 13 16 C11.35 15.67 9.7 15.34 8 15 C8 14.34 8 13.68 8 13 C6.68 12.67 5.36 12.34 4 12 C4 11.34 4 10.68 4 10 C3.34 9.67 2.68 9.34 2 9 C1.3671875 6.93359375 1.3671875 6.93359375 0.875 4.4375 C0.70742188 3.61121094 0.53984375 2.78492188 0.3671875 1.93359375 C0.24601562 1.29550781 0.12484375 0.65742188 0 0 Z " fill="#900B07" transform="translate(280,187)"/>
<path d="M0 0 C0.66 0.33 1.32 0.66 2 1 C1 4 1 4 -0.375 5.25 C-2.28673219 7.10007773 -2.28673219 7.10007773 -3.4375 10.5625 C-5 14 -5 14 -7.125 15.3125 C-8.053125 15.6528125 -8.053125 15.6528125 -9 16 C-9.33 16.66 -9.66 17.32 -10 18 C-10.66 18 -11.32 18 -12 18 C-12 18.66 -12 19.32 -12 20 C-14.375 21.6875 -14.375 21.6875 -17 23 C-17.66 22.67 -18.32 22.34 -19 22 C-18.67 19.69 -18.34 17.38 -18 15 C-15.525 15.99 -15.525 15.99 -13 17 C-12.67 15.68 -12.34 14.36 -12 13 C-11.01 13.33 -10.02 13.66 -9 14 C-9 13.34 -9 12.68 -9 12 C-8.34 12 -7.68 12 -7 12 C-6.566875 10.88625 -6.566875 10.88625 -6.125 9.75 C-5.17697356 7.43260203 -4.15154089 5.22082885 -3 3 C-2.01 3 -1.02 3 0 3 C0 2.01 0 1.02 0 0 Z " fill="#B22820" transform="translate(411,179)"/>
<path d="M0 0 C1.32 0 2.64 0 4 0 C6 4 8 8 10 12 C10.66 12 11.32 12 12 12 C12 12.66 12 13.32 12 14 C13.65 14.33 15.3 14.66 17 15 C17 16.32 17 17.64 17 19 C17.99 19.33 18.98 19.66 20 20 C19.34 20 18.68 20 18 20 C17.67 20.66 17.34 21.32 17 22 C17 21.34 17 20.68 17 20 C16.38125 19.87625 15.7625 19.7525 15.125 19.625 C13 19 13 19 11 17 C11.33 16.34 11.66 15.68 12 15 C11.01 15 10.02 15 9 15 C9 14.01 9 13.02 9 12 C7.68 11.67 6.36 11.34 5 11 C4.34 8.69 3.68 6.38 3 4 C2.34 4 1.68 4 1 4 C0.01 4 -0.98 4 -2 4 C-1.34 2.68 -0.68 1.36 0 0 Z " fill="#B10805" transform="translate(276,188)"/>
<path d="M0 0 C0.33 0 0.66 0 1 0 C1.07401964 5.80238024 1.12853989 11.60448722 1.16479492 17.40722656 C1.17990462 19.38221013 1.20039328 21.35716004 1.22631836 23.33203125 C1.26260619 26.16675106 1.27970416 29.00102826 1.29296875 31.8359375 C1.30845261 32.72243988 1.32393646 33.60894226 1.33988953 34.52230835 C1.34011612 35.34300812 1.34034271 36.16370789 1.34057617 37.00927734 C1.34723801 37.73319672 1.35389984 38.45711609 1.36076355 39.20297241 C1 41 1 41 -2 43 C-2.12262919 36.56878031 -1.90840433 30.22277865 -1.4375 23.8125 C-1.04688112 18.38709645 -0.99495116 13.3602605 -2 8 C-1.67 8 -1.34 8 -1 8 C-0.67 5.36 -0.34 2.72 0 0 Z " fill="#900501" transform="translate(306,256)"/>
<path d="M0 0 C0.33 0.99 0.66 1.98 1 3 C1.66 3.33 2.32 3.66 3 4 C2.34 4 1.68 4 1 4 C1 6.31 1 8.62 1 11 C1.66 11 2.32 11 3 11 C3 11.66 3 12.32 3 13 C2.34 13 1.68 13 1 13 C1 15.31 1 17.62 1 20 C1.99 20.33 2.98 20.66 4 21 C3.34 23.31 2.68 25.62 2 28 C0.35 27.67 -1.3 27.34 -3 27 C-3.1953125 20.9453125 -3.1953125 20.9453125 -3 19 C-2.34 18.34 -1.68 17.68 -1 17 C-0.69324768 14.10032243 -0.48826629 11.28216822 -0.375 8.375 C-0.33632813 7.57320312 -0.29765625 6.77140625 -0.2578125 5.9453125 C-0.16346069 3.96392444 -0.08063785 1.98199355 0 0 Z " fill="#DC1710" transform="translate(262,124)"/>
<path d="M0 0 C0.66 0 1.32 0 2 0 C2.05410687 1.77049689 2.09284119 3.54146849 2.125 5.3125 C2.14820313 6.29863281 2.17140625 7.28476563 2.1953125 8.30078125 C2 11 2 11 0 14 C-0.66 14 -1.32 14 -2 14 C-1.814375 14.556875 -1.62875 15.11375 -1.4375 15.6875 C-0.92448835 18.399133 -1.3359276 20.34371039 -2 23 C-1.01 23 -0.02 23 1 23 C1.33 24.32 1.66 25.64 2 27 C0.02 26.67 -1.96 26.34 -4 26 C-4 20.39 -4 14.78 -4 9 C-3.01 9 -2.02 9 -1 9 C-0.67 6.03 -0.34 3.06 0 0 Z " fill="#FB1E1A" transform="translate(127,71)"/>
<path d="M0 0 C0.66 1.32 1.32 2.64 2 4 C2.33 4.33 2.66 4.66 3 5 C3.13176159 8.82108612 3.12464323 12.25117439 2.49609375 16.02734375 C1.70283695 21.30250148 1.89456369 26.61670086 1.9375 31.9375 C1.94201172 33.00291016 1.94652344 34.06832031 1.95117188 35.16601562 C1.96288213 37.77740291 1.97928276 40.38867124 2 43 C1.34 43 0.68 43 0 43 C0 28.81 0 14.62 0 0 Z " fill="#BB070D" transform="translate(123,203)"/>
<path d="M0 0 C1 2 1 2 0.375 4.4375 C-1.34145638 7.63635052 -2.76082035 8.40518832 -6 10 C-9.11328125 10.51171875 -9.11328125 10.51171875 -12.3125 10.6875 C-13.38113281 10.75324219 -14.44976562 10.81898438 -15.55078125 10.88671875 C-16.76314453 10.94279297 -16.76314453 10.94279297 -18 11 C-18 10.34 -18 9.68 -18 9 C-17.11957031 8.68546875 -16.23914063 8.3709375 -15.33203125 8.046875 C-14.17058594 7.61890625 -13.00914062 7.1909375 -11.8125 6.75 C-10.66394531 6.33234375 -9.51539063 5.9146875 -8.33203125 5.484375 C-5.04647435 4.0207037 -2.68638832 2.36766428 0 0 Z " fill="#9C1718" transform="translate(250,155)"/>
<path d="M0 0 C0.93065133 2.60582371 1.14917407 3.64198224 0.0625 6.25 C-0.288125 6.8275 -0.63875 7.405 -1 8 C-1.66 8 -2.32 8 -3 8 C-3.17015625 8.62648437 -3.3403125 9.25296875 -3.515625 9.8984375 C-3.75796875 10.71570313 -4.0003125 11.53296875 -4.25 12.375 C-4.59804688 13.59316406 -4.59804688 13.59316406 -4.953125 14.8359375 C-6.23364129 17.48297491 -7.36445925 17.86666402 -10 19 C-10.60061233 20.90178785 -10.60061233 20.90178785 -11 23 C-12.5625 25.25 -12.5625 25.25 -14 27 C-13.39009109 23.44219804 -12.4216319 20.3171411 -11 17 C-10.01 17 -9.02 17 -8 17 C-7.87625 16.29875 -7.7525 15.5975 -7.625 14.875 C-6.95346853 11.78595523 -6.19809363 8.92867331 -5 6 C-4.01 5.67 -3.02 5.34 -2 5 C-2 4.34 -2 3.68 -2 3 C-1.34 3 -0.68 3 0 3 C0 2.01 0 1.02 0 0 Z " fill="#A75648" transform="translate(304,152)"/>
<path d="M0 0 C0.33 0 0.66 0 1 0 C1.22119939 2.62450086 1.42746669 5.24870486 1.625 7.875 C1.68945312 8.62136719 1.75390625 9.36773437 1.8203125 10.13671875 C1.96087365 12.0870047 1.98759849 14.04469467 2 16 C1.34 16.66 0.68 17.32 0 18 C-0.22565764 20.03091876 -0.45079705 22.0619063 -0.66796875 24.09375 C-1 26 -1 26 -2.25 27.9375 C-4.43927937 29.26670533 -6.4963556 29.54590763 -9 30 C-8.59007812 29.34773438 -8.18015625 28.69546875 -7.7578125 28.0234375 C-6.94957031 26.71246094 -6.94957031 26.71246094 -6.125 25.375 C-5.59132812 24.51648438 -5.05765625 23.65796875 -4.5078125 22.7734375 C-1.60655912 17.43693518 -0.71672635 12.66216559 -0.375 6.625 C-0.30023438 5.37976563 -0.22546875 4.13453125 -0.1484375 2.8515625 C-0.09945313 1.91054687 -0.05046875 0.96953125 0 0 Z " fill="#B6211F" transform="translate(260,125)"/>
<path d="M0 0 C0.66 0 1.32 0 2 0 C2 0.66 2 1.32 2 2 C2.99 1.34 3.98 0.68 5 0 C5.99 0.33 6.98 0.66 8 1 C7.731875 1.53625 7.46375 2.0725 7.1875 2.625 C6.71505985 5.31141213 6.71505985 5.31141213 9.25 8.0625 C11.10379421 10.10219001 12.99866067 12.10399432 15 14 C14.67 14.66 14.34 15.32 14 16 C4.08805031 7.49685535 4.08805031 7.49685535 0 3 C0 2.01 0 1.02 0 0 Z " fill="#BB1D2B" transform="translate(337,184)"/>
<path d="M0 0 C16.09289617 1.83918813 16.09289617 1.83918813 20 6 C26.30996102 15.85845113 26.30996102 15.85845113 25.65625 20.375 C25.4396875 20.91125 25.223125 21.4475 25 22 C23 19 23 19 23 16 C22.34 16 21.68 16 21 16 C20.34 13.03 19.68 10.06 19 7 C16.69 6.34 14.38 5.68 12 5 C12 4.34 12 3.68 12 3 C8.04 2.67 4.08 2.34 0 2 C0 1.34 0 0.68 0 0 Z " fill="#A70405" transform="translate(388,145)"/>
<path d="M0 0 C0 0.66 0 1.32 0 2 C-0.7425 2.103125 -1.485 2.20625 -2.25 2.3125 C-5.1863157 3.04657893 -6.66108288 4.14499677 -9 6 C-9.66 6 -10.32 6 -11 6 C-11.33 6.66 -11.66 7.32 -12 8 C-12.639375 8.268125 -13.27875 8.53625 -13.9375 8.8125 C-16.68156708 10.39241741 -17.06890124 12.0515206 -18 15 C-18.6953125 13.25390625 -18.6953125 13.25390625 -19 11 C-14.37037416 3.50920788 -8.86777506 -0.52163383 0 0 Z " fill="#C71A10" transform="translate(394,147)"/>
<path d="M0 0 C0.66 0 1.32 0 2 0 C2.05384521 2.29141286 2.09272087 4.58318188 2.125 6.875 C2.14820313 8.15117187 2.17140625 9.42734375 2.1953125 10.7421875 C2 14 2 14 0 16 C-0.66 14.68 -1.32 13.36 -2 12 C-2.99 12.495 -2.99 12.495 -4 13 C-4.25 5.375 -4.25 5.375 -2 2 C-1.34 2 -0.68 2 0 2 C0 1.34 0 0.68 0 0 Z " fill="#F2F7F8" transform="translate(310,144)"/>
<path d="M0 0 C0.33 0.99 0.66 1.98 1 3 C1.66 3 2.32 3 3 3 C3 3.66 3 4.32 3 5 C2.01 5 1.02 5 0 5 C-0.33 5.99 -0.66 6.98 -1 8 C-1.61875 7.79375 -2.2375 7.5875 -2.875 7.375 C-3.57625 7.25125 -4.2775 7.1275 -5 7 C-5.66 7.66 -6.32 8.32 -7 9 C-7.99 8.34 -8.98 7.68 -10 7 C-10.99 7.33 -11.98 7.66 -13 8 C-11.25 3.125 -11.25 3.125 -9 2 C-8.67 2.66 -8.34 3.32 -8 4 C-4.31245243 3.50168276 -2.39509338 2.89932357 0 0 Z " fill="#C6150D" transform="translate(399,188)"/>
<path d="M0 0 C0.99 0 1.98 0 3 0 C3 0.66 3 1.32 3 2 C2.01 2 1.02 2 0 2 C-0.1546875 3.0209375 -0.1546875 3.0209375 -0.3125 4.0625 C-1.83828886 10.58177969 -4.59566638 15.1195222 -9 20 C-9.96706319 16.99135897 -10.27677226 14.94639752 -9 12 C-6.9375 10.75 -6.9375 10.75 -5 10 C-5 7.69 -5 5.38 -5 3 C-4.67 3.99 -4.34 4.98 -4 6 C-3.34 6 -2.68 6 -2 6 C-1.855625 5.195625 -1.71125 4.39125 -1.5625 3.5625 C-1 1 -1 1 0 0 Z " fill="#B62517" transform="translate(293,167)"/>
<path d="M0 0 C8.57142857 -0.28571429 8.57142857 -0.28571429 12 2 C11.01 2.33 10.02 2.66 9 3 C8.67 3.99 8.34 4.98 8 6 C9.65 6 11.3 6 13 6 C12.34 6.66 11.68 7.32 11 8 C11.99 8.99 12.98 9.98 14 11 C9.85878264 11 8.16365957 8.75914512 5.3125 6.0625 C4.80138672 5.59392578 4.29027344 5.12535156 3.76367188 4.64257812 C2.48385946 3.45503523 1.23873906 2.23032657 0 1 C0 0.67 0 0.34 0 0 Z " fill="#B10C11" transform="translate(352,200)"/>
<path d="M0 0 C2.54184599 3.09764322 4.05849147 6.16919843 5.5625 9.875 C5.97628906 10.88304687 6.39007813 11.89109375 6.81640625 12.9296875 C8.83732578 18.17207282 10.26994678 22.33111756 10 28 C9.34 27.67 8.68 27.34 8 27 C7.79567151 25.36537205 7.59405752 23.73035839 7.40625 22.09375 C6.63903039 18.13961815 4.72683297 14.61355788 3 11 C1.19788821 7.14590377 0 4.37159645 0 0 Z " fill="#652221" transform="translate(298,208)"/>
<path d="M0 0 C5.99354077 3.22729119 11.54138346 8.60863319 13.734375 15.2109375 C14 17.125 14 17.125 14 20 C11.67025658 17.88085485 10.38809745 15.99770835 9.125 13.125 C7.33185323 9.34410138 5.05207422 6.88251454 2 4 C2 3.34 2 2.68 2 2 C1.34 2 0.68 2 0 2 C0 1.34 0 0.68 0 0 Z " fill="#6A0F0F" transform="translate(285,68)"/>
<path d="M0 0 C1.06992188 0.00644531 2.13984375 0.01289063 3.2421875 0.01953125 C4.35335937 0.03628906 5.46453125 0.05304688 6.609375 0.0703125 C7.73601562 0.07933594 8.86265625 0.08835937 10.0234375 0.09765625 C12.80229865 0.12120592 15.5807289 0.1540957 18.359375 0.1953125 C18.029375 1.5153125 17.699375 2.8353125 17.359375 4.1953125 C8.449375 3.5353125 -0.460625 2.8753125 -9.640625 2.1953125 C-5.67441702 0.21220851 -4.24920212 -0.04520428 0 0 Z " fill="#950305" transform="translate(149.640625,311.8046875)"/>
<path d="M0 0 C0.66 0 1.32 0 2 0 C2 0.66 2 1.32 2 2 C2.556875 2.226875 3.11375 2.45375 3.6875 2.6875 C6.72662564 4.41240914 8.75753345 6.32149829 11 9 C11.3125 11.8125 11.3125 11.8125 11 14 C9.68 14 8.36 14 7 14 C7.33 12.02 7.66 10.04 8 8 C7.0409375 8.2784375 7.0409375 8.2784375 6.0625 8.5625 C5.381875 8.706875 4.70125 8.85125 4 9 C3 8 3 8 2.9375 5.4375 C2.958125 4.633125 2.97875 3.82875 3 3 C2.34 3 1.68 3 1 3 C0.67 2.01 0.34 1.02 0 0 Z " fill="#E3120F" transform="translate(285,74)"/>
<path d="M0 0 C0.68707031 0.0721875 1.37414062 0.144375 2.08203125 0.21875 C2.98308594 0.3115625 3.88414062 0.404375 4.8125 0.5 C5.70582031 0.5928125 6.59914063 0.685625 7.51953125 0.78125 C10.08305099 1.04392401 10.08305099 1.04392401 13 1 C13 4 13 4 11.625 5.6875 C10 7 10 7 8 7 C8 6.34 8 5.68 8 5 C6.68 5.33 5.36 5.66 4 6 C3.67 5.01 3.34 4.02 3 3 C1.50014391 1.33289654 1.50014391 1.33289654 0 0 Z " fill="#880202" transform="translate(362,207)"/>
<path d="M0 0 C0.7528125 -0.00515625 1.505625 -0.0103125 2.28125 -0.015625 C4.7296721 0.27749596 6.37304054 1.03183231 8.5 2.25 C5.33550666 4.12525531 3.15062593 4.4325313 -0.5 4.25 C-4.29557881 4.25 -6.12902617 4.75178941 -9.5 6.25 C-9.25 4.375 -9.25 4.375 -8.5 2.25 C-5.62749841 0.43244369 -3.37097617 -0.02308888 0 0 Z " fill="#9F1612" transform="translate(385.5,199.75)"/>
<path d="M0 0 C3.53842155 1.1258614 6.66189518 2.33094759 10 4 C9.34 7.3 8.68 10.6 8 14 C7.67 14 7.34 14 7 14 C7 11.69 7 9.38 7 7 C5.68 7 4.36 7 3 7 C2.01 4.69 1.02 2.38 0 0 Z " fill="#B60508" transform="translate(254,230)"/>
<path d="M0 0 C0.33 0 0.66 0 1 0 C1 11.88 1 23.76 1 36 C0.505 34.515 0.505 34.515 0 33 C-0.99 32.67 -1.98 32.34 -3 32 C-2.34 31.34 -1.68 30.68 -1 30 C-0.62677573 26.89243985 -0.62677573 26.89243985 -0.5859375 23.2421875 C-0.56657135 22.57913605 -0.5472052 21.91608459 -0.5272522 21.23294067 C-0.46744046 19.11375823 -0.42106612 16.9945215 -0.375 14.875 C-0.33682155 13.43877831 -0.29776989 12.00257955 -0.2578125 10.56640625 C-0.16173875 7.04448064 -0.07771358 3.52238392 0 0 Z " fill="#650103" transform="translate(307,280)"/>
<path d="M0 0 C-0.61875 0.433125 -1.2375 0.86625 -1.875 1.3125 C-4.2197245 2.99740483 -4.2197245 2.99740483 -6 6 C-6.66 6 -7.32 6 -8 6 C-8 6.66 -8 7.32 -8 8 C-9.65 8.66 -11.3 9.32 -13 10 C-12.1875 7.0625 -12.1875 7.0625 -11 4 C-10.01 3.67 -9.02 3.34 -8 3 C-7.67 2.34 -7.34 1.68 -7 1 C-2.44155844 -1.22077922 -2.44155844 -1.22077922 0 0 Z " fill="#E21D15" transform="translate(389,152)"/>
<path d="M0 0 C1.22589844 0.01353516 1.22589844 0.01353516 2.4765625 0.02734375 C3.41628906 0.04474609 3.41628906 0.04474609 4.375 0.0625 C4.705 1.0525 5.035 2.0425 5.375 3.0625 C4.715 3.7225 4.055 4.3825 3.375 5.0625 C-0.25 4.6875 -0.25 4.6875 -3.625 4.0625 C-3.625 3.4025 -3.625 2.7425 -3.625 2.0625 C-4.615 1.7325 -5.605 1.4025 -6.625 1.0625 C-4.21954362 -0.14022819 -2.67503047 -0.03821472 0 0 Z " fill="#E9130F" transform="translate(243.625,95.9375)"/>
<path d="M0 0 C0.66 0 1.32 0 2 0 C4.14336161 3.4766338 4.21277626 6.21229195 4.125 10.25 C4.10695313 11.32765625 4.08890625 12.4053125 4.0703125 13.515625 C4.04710937 14.33546875 4.02390625 15.1553125 4 16 C3.67 14.68 3.34 13.36 3 12 C2.01 12 1.02 12 0 12 C0 8.04 0 4.08 0 0 Z " fill="#C20B0F" transform="translate(409,161)"/>
<path d="M0 0 C0.33 0 0.66 0 1 0 C1.08126087 2.08268593 1.13930839 4.16628658 1.1875 6.25 C1.23970703 7.99023438 1.23970703 7.99023438 1.29296875 9.765625 C0.97982934 13.22268407 0.34290892 14.51565563 -2 17 C-2.05398987 14.72942623 -2.09278742 12.45848712 -2.125 10.1875 C-2.14820313 8.92292969 -2.17140625 7.65835938 -2.1953125 6.35546875 C-2 3 -2 3 0 0 Z " fill="#8C1D1D" transform="translate(415,164)"/>
<path d="M0 0 C0.66 0.33 1.32 0.66 2 1 C1.72285156 1.59167969 1.44570312 2.18335938 1.16015625 2.79296875 C-1.55774153 8.69046431 -1.55774153 8.69046431 -3 15 C-3.33 15 -3.66 15 -4 15 C-4 10.71 -4 6.42 -4 2 C-2.68 1.34 -1.36 0.68 0 0 Z " fill="#FD2123" transform="translate(127,54)"/>
<path d="M0 0 C6.19518473 0.41588046 11.26689311 1.60251894 17 4 C16.34 4.66 15.68 5.32 15 6 C12.27130593 5.96712417 9.7033382 5.43602229 7 5 C7 4.34 7 3.68 7 3 C4.69 2.34 2.38 1.68 0 1 C0 0.67 0 0.34 0 0 Z " fill="#A9161B" transform="translate(248,51)"/>
<path d="M0 0 C0.90105469 0.19464844 1.80210937 0.38929687 2.73046875 0.58984375 C3.41753906 0.74582031 4.10460937 0.90179688 4.8125 1.0625 C4.4825 2.0525 4.1525 3.0425 3.8125 4.0625 C0.5125 4.0625 -2.7875 4.0625 -6.1875 4.0625 C-5.8575 3.0725 -5.5275 2.0825 -5.1875 1.0625 C-6.1775 0.7325 -7.1675 0.4025 -8.1875 0.0625 C-4.80475734 -1.06508089 -3.41971777 -0.75500262 0 0 Z " fill="#F7150D" transform="translate(245.1875,51.9375)"/>
<path d="M0 0 C0.33 1.32 0.66 2.64 1 4 C-0.8125 5.5625 -0.8125 5.5625 -3 7 C-3.99 6.67 -4.98 6.34 -6 6 C-6 4.35 -6 2.7 -6 1 C-4 0 -4 0 0 0 Z " fill="#F3F8F8" transform="translate(383,216)"/>
<path d="M0 0 C0.33 1.32 0.66 2.64 1 4 C0.34 4 -0.32 4 -1 4 C-0.67 5.65 -0.34 7.3 0 9 C-0.99 9 -1.98 9 -3 9 C-6 4.77777778 -6 4.77777778 -6 2 C-5.38125 1.855625 -4.7625 1.71125 -4.125 1.5625 C-1.96741678 1.06847775 -1.96741678 1.06847775 0 0 Z " fill="#F6F6F7" transform="translate(303,203)"/>
<path d="M0 0 C-2.00994202 2.60110143 -3.15670289 3.03988801 -6.4375 3.875 C-10.50128009 5.15829898 -11.69961714 6.50341805 -14 10 C-14.66 9.67 -15.32 9.34 -16 9 C-6.5920942 -3.2960471 -6.5920942 -3.2960471 0 0 Z " fill="#A50A0A" transform="translate(350,149)"/>
<path d="M0 0 C-1.34484451 4.03453354 -3.48129471 4.72319069 -7 7 C-7.680625 7.763125 -8.36125 8.52625 -9.0625 9.3125 C-10.0215625 10.1478125 -10.0215625 10.1478125 -11 11 C-13.75 10.75 -13.75 10.75 -16 10 C-16.33 8.68 -16.66 7.36 -17 6 C-16.01 6.99 -15.02 7.98 -14 9 C-9.904387 7.18176822 -7.06529279 4.47545937 -3.8046875 1.4609375 C-2 0 -2 0 0 0 Z " fill="#742724" transform="translate(388,145)"/>
<path d="M0 0 C0.99 0.33 1.98 0.66 3 1 C3 3.64 3 6.28 3 9 C1.68 9.33 0.36 9.66 -1 10 C-1.02689216 8.52093108 -1.04634621 7.04172517 -1.0625 5.5625 C-1.07410156 4.73878906 -1.08570313 3.91507812 -1.09765625 3.06640625 C-1 1 -1 1 0 0 Z " fill="#E21616" transform="translate(261,112)"/>
<path d="M0 0 C0.33 0 0.66 0 1 0 C1.08071788 2.79224073 1.14035408 5.58216566 1.1875 8.375 C1.21263672 9.1690625 1.23777344 9.963125 1.26367188 10.78125 C1.29004405 12.85586148 1.15486462 14.93100865 1 17 C0.01 17.66 -0.98 18.32 -2 19 C-2 15.37 -2 11.74 -2 8 C-1.34 8 -0.68 8 0 8 C0 5.36 0 2.72 0 0 Z " fill="#7B0403" transform="translate(306,280)"/>
<path d="M0 0 C-0.33 2.31 -0.66 4.62 -1 7 C-1.66 6.34 -2.32 5.68 -3 5 C-3.99 5 -4.98 5 -6 5 C-6.33 3.68 -6.66 2.36 -7 1 C-3.375 -1.125 -3.375 -1.125 0 0 Z " fill="#F2F9FA" transform="translate(392,211)"/>
<path d="M0 0 C7.54462403 -0.37104708 7.54462403 -0.37104708 9.6875 1.375 C10.120625 1.91125 10.55375 2.4475 11 3 C13.59915538 4.19027984 13.59915538 4.19027984 16 5 C13 7 13 7 10.8125 6.625 C10.214375 6.41875 9.61625 6.2125 9 6 C9 5.34 9 4.68 9 4 C8.01 4 7.02 4 6 4 C6 3.34 6 2.68 6 2 C3.03 1.505 3.03 1.505 0 1 C0 0.67 0 0.34 0 0 Z " fill="#D30605" transform="translate(258,56)"/>
<path d="M0 0 C0.66 0 1.32 0 2 0 C2.625 3.375 2.625 3.375 3 7 C2.34 7.66 1.68 8.32 1 9 C-0.32 8.67 -1.64 8.34 -3 8 C-2.01 5.36 -1.02 2.72 0 0 Z " fill="#CD1613" transform="translate(410,173)"/>
<path d="M0 0 C2.61382886 3.92074329 2.29386386 7.44511017 2 12 C1.34 12.66 0.68 13.32 0 14 C-1.10424872 9.58300512 -1.15088074 5.52642225 -1 1 C-0.67 0.67 -0.34 0.34 0 0 Z " fill="#E4DDE3" transform="translate(258,238)"/>
<path d="M0 0 C3.03333333 6.06666667 3.03333333 6.06666667 4.1875 8.5 C4.55230469 9.2528125 4.91710937 10.005625 5.29296875 10.78125 C6.09761018 13.3063126 5.87823436 14.53870625 5 17 C4.54625 15.865625 4.0925 14.73125 3.625 13.5625 C2.42904194 9.95278308 2.42904194 9.95278308 0 9 C0 6.03 0 3.06 0 0 Z " fill="#840305" transform="translate(300,215)"/>
<path d="M0 0 C1.65 0 3.3 0 5 0 C3.68 2.31 2.36 4.62 1 7 C-0.32 7 -1.64 7 -3 7 C-3 5.35 -3 3.7 -3 2 C-2.01 2 -1.02 2 0 2 C0 1.34 0 0.68 0 0 Z " fill="#D61E16" transform="translate(403,184)"/>
<path d="M0 0 C0.66 0.33 1.32 0.66 2 1 C1 4 1 4 -0.375 5.25 C-2.77964237 7.83961486 -3.701626 10.72315134 -5 14 C-5.99 13.67 -6.98 13.34 -8 13 C-7.34 13 -6.68 13 -6 13 C-6.061875 12.278125 -6.12375 11.55625 -6.1875 10.8125 C-5.96105777 7.4158666 -5.06745292 5.68003157 -3 3 C-2.01 3 -1.02 3 0 3 C0 2.01 0 1.02 0 0 Z " fill="#B44E4F" transform="translate(411,179)"/>
<path d="M0 0 C3.44935605 2.2995707 3.89804378 3.10077031 5 7 C5.15484118 9.69223859 5.09156692 12.29877588 5 15 C4.67 15 4.34 15 4 15 C2.23107476 10.07227969 1.0681847 5.11365014 0 0 Z " fill="#481312" transform="translate(410,153)"/>
<path d="M0 0 C0.33 0 0.66 0 1 0 C1.27565727 2.60376274 1.52127265 5.20455968 1.75 7.8125 C1.83121094 8.55048828 1.91242188 9.28847656 1.99609375 10.04882812 C2.171875 12.20703125 2.171875 12.20703125 2 16 C0.015625 18.01171875 0.015625 18.01171875 -2 19 C-1.84660156 18.32582031 -1.69320313 17.65164062 -1.53515625 16.95703125 C-0.91516143 13.53122048 -0.6647426 10.16106553 -0.4375 6.6875 C-0.35371094 5.43324219 -0.26992188 4.17898437 -0.18359375 2.88671875 C-0.12300781 1.93410156 -0.06242187 0.98148437 0 0 Z " fill="#C14950" transform="translate(260,125)"/>
<path d="M0 0 C0.99 0 1.98 0 3 0 C3 0.66 3 1.32 3 2 C5.31 2 7.62 2 10 2 C10.33 2.99 10.66 3.98 11 5 C11.99 5 12.98 5 14 5 C14 5.66 14 6.32 14 7 C3.25740319 4.29384966 3.25740319 4.29384966 0 0 Z " fill="#EE150E" transform="translate(264,60)"/>
<path d="M0 0 C10.74259681 3.85421412 10.74259681 3.85421412 14 8 C13.01 8 12.02 8 11 8 C11 7.34 11 6.68 11 6 C9.948125 5.8453125 9.948125 5.8453125 8.875 5.6875 C5.60862353 4.90640997 2.9528148 3.57941257 0 2 C0 1.34 0 0.68 0 0 Z " fill="#8E1C1D" transform="translate(266,56)"/>
<path d="M0 0 C-0.95117134 1.1725131 -1.91117009 2.33787015 -2.875 3.5 C-3.40867187 4.1496875 -3.94234375 4.799375 -4.4921875 5.46875 C-4.98976563 5.9740625 -5.48734375 6.479375 -6 7 C-6.66 7 -7.32 7 -8 7 C-8.33 5.35 -8.66 3.7 -9 2 C-3.375 -1.125 -3.375 -1.125 0 0 Z " fill="#893C3C" transform="translate(394,203)"/>
<path d="M0 0 C0 0.66 0 1.32 0 2 C-6.625 3 -6.625 3 -10 3 C-10 3.66 -10 4.32 -10 5 C-10.99 4.67 -11.98 4.34 -13 4 C-8.48649253 0.47726246 -5.71658336 -0.45732667 0 0 Z " fill="#B9100A" transform="translate(394,147)"/>
<path d="M0 0 C0.8353125 0.2784375 0.8353125 0.2784375 1.6875 0.5625 C4.399133 1.07551165 6.34371039 0.6640724 9 0 C6.875 2.5625 6.875 2.5625 4 5 C0.6875 4.8125 0.6875 4.8125 -2 4 C-1.34 2.68 -0.68 1.36 0 0 Z " fill="#F7F8F8" transform="translate(378,144)"/>
<path d="M0 0 C1.32 0 2.64 0 4 0 C3.34 3.3 2.68 6.6 2 10 C1.34 10 0.68 10 0 10 C-1.125 2.25 -1.125 2.25 0 0 Z " fill="#B60E06" transform="translate(281,177)"/>
<path d="M0 0 C2.31 0 4.62 0 7 0 C7.66 1.65 8.32 3.3 9 5 C8.34 5.66 7.68 6.32 7 7 C6.34 6.67 5.68 6.34 5 6 C5 5.01 5 4.02 5 3 C2.525 2.01 2.525 2.01 0 1 C0 0.67 0 0.34 0 0 Z " fill="#E91814" transform="translate(248,103)"/>
<path d="M0 0 C3.3 0 6.6 0 10 0 C7 3 7 3 3.3125 3.1875 C1.6728125 3.0946875 1.6728125 3.0946875 0 3 C0 2.01 0 1.02 0 0 Z " fill="#F91B13" transform="translate(216,53)"/>
<path d="M0 0 C0.66 0.33 1.32 0.66 2 1 C2 3.64 2 6.28 2 9 C1.01 9.33 0.02 9.66 -1 10 C-1.125 2.25 -1.125 2.25 0 0 Z " fill="#F4F6F7" transform="translate(251,228)"/>
<path d="M0 0 C1.4540625 0.0309375 1.4540625 0.0309375 2.9375 0.0625 C1.80030581 3.47408256 0.89407056 4.18104601 -2.0625 6.0625 C-2.7225 6.0625 -3.3825 6.0625 -4.0625 6.0625 C-4.105221 4.39638095 -4.10313832 2.72867115 -4.0625 1.0625 C-3.0625 0.0625 -3.0625 0.0625 0 0 Z " fill="#752520" transform="translate(381.0625,210.9375)"/>
<path d="M0 0 C2.37948772 0.17625835 3.70225849 0.69719773 5.37890625 2.40234375 C6.62115486 3.90649092 7.81376056 5.45129851 9 7 C8.01 7.33 7.02 7.66 6 8 C6 7.34 6 6.68 6 6 C5.01 6 4.02 6 3 6 C2.87625 5.195625 2.7525 4.39125 2.625 3.5625 C2.315625 2.2940625 2.315625 2.2940625 2 1 C1.34 0.67 0.68 0.34 0 0 Z " fill="#772123" transform="translate(282,191)"/>
<path d="M0 0 C0 0.66 0 1.32 0 2 C0.99 2 1.98 2 3 2 C3 2.66 3 3.32 3 4 C0.03 3.505 0.03 3.505 -3 3 C-3 2.34 -3 1.68 -3 1 C-5.31 1 -7.62 1 -10 1 C-10 0.67 -10 0.34 -10 0 C-6.33694766 -0.74926071 -3.57644848 -1.2380014 0 0 Z " fill="#D1151A" transform="translate(237,96)"/>
<path d="M0 0 C2.50037734 2.17424117 3.43628586 3.73045798 4 7 C2.35 7 0.7 7 -1 7 C-1.33 6.34 -1.66 5.68 -2 5 C-1.0625 2.375 -1.0625 2.375 0 0 Z " fill="#EE1B19" transform="translate(297,89)"/>
<path d="M0 0 C0.66 0 1.32 0 2 0 C2 0.66 2 1.32 2 2 C2.99 1.34 3.98 0.68 5 0 C5.99 0.33 6.98 0.66 8 1 C7.01 2.485 7.01 2.485 6 4 C3.375 4.1875 3.375 4.1875 1 4 C0.67 2.68 0.34 1.36 0 0 Z " fill="#C6191E" transform="translate(337,184)"/>
<path d="M0 0 C0.33 0 0.66 0 1 0 C1.33 5.61 1.66 11.22 2 17 C1.01 17 0.02 17 -1 17 C-0.67 11.39 -0.34 5.78 0 0 Z " fill="#E9B7B7" transform="translate(332,164)"/>
<path d="M0 0 C2.64 0.33 5.28 0.66 8 1 C4.46588679 3.12046792 1.05606165 3.53199289 -3 4 C-2.01 2.68 -1.02 1.36 0 0 Z " fill="#BD0803" transform="translate(350,148)"/>
<path d="M0 0 C0.33 0 0.66 0 1 0 C0.88557539 1.60495567 0.75805306 3.20898119 0.625 4.8125 C0.55539062 5.70582031 0.48578125 6.59914062 0.4140625 7.51953125 C0 10 0 10 -2 13 C-2.33 10.03 -2.66 7.06 -3 4 C-2.34 3.67 -1.68 3.34 -1 3 C-0.67 2.01 -0.34 1.02 0 0 Z " fill="#9F332B" transform="translate(307,139)"/>
<path d="M0 0 C2.95929119 2.75520215 5.03681826 5.46627288 7 9 C6.01 9.495 6.01 9.495 5 10 C5 9.34 5 8.68 5 8 C4.01 8 3.02 8 2 8 C2 6.68 2 5.36 2 4 C1.34 4 0.68 4 0 4 C0 2.68 0 1.36 0 0 Z " fill="#781F1E" transform="translate(291,199)"/>
<path d="M0 0 C3 3.75 3 3.75 3 6 C3.66 6 4.32 6 5 6 C4.67 6.99 4.34 7.98 4 9 C2.68 8.34 1.36 7.68 0 7 C0 4.69 0 2.38 0 0 Z " fill="#ED1E15" transform="translate(367,154)"/>
<path d="M0 0 C0.66 0 1.32 0 2 0 C2 0.66 2 1.32 2 2 C2.99 2.33 3.98 2.66 5 3 C6.1875 5.5625 6.1875 5.5625 7 8 C5.68 8 4.36 8 3 8 C3 6.35 3 4.7 3 3 C2.34 3 1.68 3 1 3 C0.67 2.01 0.34 1.02 0 0 Z " fill="#F31D16" transform="translate(285,74)"/>
<path d="M0 0 C0.33 0.99 0.66 1.98 1 3 C-0.65 4.65 -2.3 6.3 -4 8 C-4.99 7.67 -5.98 7.34 -7 7 C-5.68 6.34 -4.36 5.68 -3 5 C-3 4.34 -3 3.68 -3 3 C-2.34 3 -1.68 3 -1 3 C-0.67 2.01 -0.34 1.02 0 0 Z " fill="#EFDCDD" transform="translate(402,194)"/>
<path d="M0 0 C1.65 0 3.3 0 5 0 C3.60667426 3.36720387 2.0210714 4.9859524 -1 7 C-1 6.01 -1 5.02 -1 4 C-0.34 4 0.32 4 1 4 C0.67 2.68 0.34 1.36 0 0 Z " fill="#F1D9D7" transform="translate(336,149)"/>
<path d="M0 0 C2.31 0 4.62 0 7 0 C6.67 1.32 6.34 2.64 6 4 C3.69 3.67 1.38 3.34 -1 3 C-0.67 2.01 -0.34 1.02 0 0 Z " fill="#760908" transform="translate(161,312)"/>
<path d="M0 0 C1.9375 0.75 1.9375 0.75 4 2 C4.75 4.125 4.75 4.125 5 6 C4.01 6 3.02 6 2 6 C1.34 4.02 0.68 2.04 0 0 Z " fill="#F8FAF6" transform="translate(368,216)"/>
<path d="M0 0 C2.31 0.33 4.62 0.66 7 1 C6.34 1.66 5.68 2.32 5 3 C5.99 3.99 6.98 4.98 8 6 C5 6 5 6 3.61328125 4.6875 C2.40885417 3.125 1.20442708 1.5625 0 0 Z " fill="#99191D" transform="translate(358,205)"/>
<path d="M0 0 C0 0.66 0 1.32 0 2 C-2.66666667 3.33333333 -5.33333333 4.66666667 -8 6 C-7.75 4.125 -7.75 4.125 -7 2 C-4.41847698 0.27898465 -3.15081975 0 0 0 Z " fill="#9F0703" transform="translate(384,200)"/>
<path d="M0 0 C1.32 0.33 2.64 0.66 4 1 C3.67 2.98 3.34 4.96 3 7 C2.34 7 1.68 7 1 7 C0.67 4.69 0.34 2.38 0 0 Z " fill="#950B03" transform="translate(372,155)"/>
<path d="M0 0 C2.79828356 0.38597015 3.8205884 0.80136573 5.75 2.9375 C7 5 7 5 7 7 C5.0625 6.25 5.0625 6.25 3 5 C2.375 2.9375 2.375 2.9375 2 1 C1.34 0.67 0.68 0.34 0 0 Z " fill="#770F0E" transform="translate(365,148)"/>
<path d="M0 0 C1.65 0.99 3.3 1.98 5 3 C4.34 4.65 3.68 6.3 3 8 C2.67 6.68 2.34 5.36 2 4 C1.34 4 0.68 4 0 4 C0 2.68 0 1.36 0 0 Z " fill="#F7F9FB" transform="translate(306,95)"/>
<path d="M0 0 C3.53600465 1.91135386 5.78972846 3.62642766 8 7 C5 7 5 7 3.3125 5.625 C2 4 2 4 2 2 C1.34 2 0.68 2 0 2 C0 1.34 0 0.68 0 0 Z " fill="#6F1C1E" transform="translate(285,68)"/>
<path d="M0 0 C0.33 0.99 0.66 1.98 1 3 C0.34 3 -0.32 3 -1 3 C-1.66 4.65 -2.32 6.3 -3 8 C-3.66 8 -4.32 8 -5 8 C-5 6.35 -5 4.7 -5 3 C-4.01 3.33 -3.02 3.66 -2 4 C-2 3.34 -2 2.68 -2 2 C-1.34 2 -0.68 2 0 2 C0 1.34 0 0.68 0 0 Z " fill="#B93934" transform="translate(404,189)"/>
<path d="M0 0 C0.66 1.32 1.32 2.64 2 4 C1.01 4.66 0.02 5.32 -1 6 C-1 5.34 -1 4.68 -1 4 C-1.66 4 -2.32 4 -3 4 C-3 3.01 -3 2.02 -3 1 C-2.01 0.67 -1.02 0.34 0 0 Z " fill="#F5F6FA" transform="translate(414,182)"/>
<path d="M0 0 C0.33 0.66 0.66 1.32 1 2 C1.66 2 2.32 2 3 2 C1.25 6.875 1.25 6.875 -1 8 C-1.04241723 5.66705225 -1.04092937 3.33297433 -1 1 C-0.67 0.67 -0.34 0.34 0 0 Z " fill="#9B1C15" transform="translate(284,179)"/>
<path d="M0 0 C0.99 0 1.98 0 3 0 C3 0.66 3 1.32 3 2 C3.66 2 4.32 2 5 2 C5 3.65 5 5.3 5 7 C3.02 5.35 1.04 3.7 -1 2 C-0.67 1.34 -0.34 0.68 0 0 Z " fill="#EDE6E6" transform="translate(406,146)"/>
<path d="M0 0 C0.99 0.495 0.99 0.495 2 1 C2.59355614 3.64860427 2.74209269 6.29197322 3 9 C2.34 9 1.68 9 1 9 C0.67 6.03 0.34 3.06 0 0 Z " fill="#8C2B28" transform="translate(305,99)"/>
<path d="M0 0 C0.33 0.66 0.66 1.32 1 2 C1.99 2 2.98 2 4 2 C4.33 3.32 4.66 4.64 5 6 C2.03 5.505 2.03 5.505 -1 5 C-0.67 3.35 -0.34 1.7 0 0 Z " fill="#F21A14" transform="translate(124,92)"/>
<path d="M0 0 C2.5 1.3125 2.5 1.3125 5 3 C5 3.99 5 4.98 5 6 C4.01 6 3.02 6 2 6 C0 3 0 3 0 0 Z " fill="#90080C" transform="translate(280,64)"/>
<path d="M0 0 C1.98 0.66 3.96 1.32 6 2 C5.34 3.65 4.68 5.3 4 7 C2.10786631 4.61426621 0.97608217 2.92824652 0 0 Z " fill="#A81821" transform="translate(254,230)"/>
<path d="M0 0 C2.125 0.9375 2.125 0.9375 4 2 C3.67 2.99 3.34 3.98 3 5 C-0.875 3.25 -0.875 3.25 -2 1 C-1.34 0.67 -0.68 0.34 0 0 Z " fill="#862422" transform="translate(373,216)"/>
<path d="M0 0 C0.33 0.66 0.66 1.32 1 2 C0.06421005 4.35981813 -0.93347808 6.69631264 -2 9 C-2.66 9 -3.32 9 -4 9 C-3.46930939 5.17902761 -2.50298434 2.93828597 0 0 Z " fill="#9C4F43" transform="translate(300,160)"/>
<path d="M0 0 C1.32 0 2.64 0 4 0 C4.33 1.32 4.66 2.64 5 4 C3.35 3.67 1.7 3.34 0 3 C0 2.01 0 1.02 0 0 Z " fill="#F6FAFA" transform="translate(366,144)"/>
</svg>
